# xmcd
#
# Track frame offsets:
#	150
#	11858
#	23167
#	34567
#	44309
#	56956
#	66595
#	80732
#	91127
#	99995
#	111577
#	121784
#	132394
#	144922
#	153517
#	166534
#	178165
#	187947
#	198925
#	208672
#	218305
#	228040
#	241426
#	251312
#	261607
#
# Disc length: 3637
#
# Revision: 1
# Processed by: cddbd v1.5.1PL0 Copyright (c) Steve Scherf et al.
# Submitted via: EasyCDDAExtractor 4.5.2.1
# Normalized: r0:TDELIM( - )
#
DISCID=580e3319
DTITLE=Various Artist - Mercury Doo-Wop  Vol #2
DYEAR=1900
DGENRE=Blues
TTITLE0=Eagles - Tryin' To Get To You
TTITLE1=Eastmen - Lover Come Home
TTITLE2=Griffins - I Swear By All The Stars Above
TTITLE3=Eagles - Please, Please
TTITLE4=Griffins - Sing To Me
TTITLE5=Falcons - Baby That's It
TTITLE6=Griffins - Scheming
TTITLE7=Eagles - Don't You Wanna Be Mine
TTITLE8=Epics - The Bells Are Ringing
TTITLE9=Eagles - Such A Fool
TTITLE10=Maureen Gray - The Story Of My Love
TTITLE11=Griffins - Bad Little Girl
TTITLE12=Eagles - I Told Myself
TTITLE13=Griffins - Why Must You Go
TTITLE14=Eagles - What A Crazy Feeling
TTITLE15=Griffins - My Baby's Gone
TTITLE16=Eastmen - Bye Bye, My Baby
TTITLE17=Eagles - Do You Need Me
TTITLE18=Joe and The Embers - Don't Forget To Write
TTITLE19=Falcons - This Day
TTITLE20=Griffins - Leave It To Me
TTITLE21=Eagles - I Stole A Rose
TTITLE22=Epics - White Cliffs Of Dover
TTITLE23=Griffins - Forever More
TTITLE24=Eagles - Just Right
EXTD=
EXTT0=
EXTT1=
EXTT2=
EXTT3=
EXTT4=
EXTT5=
EXTT6=
EXTT7=
EXTT8=
EXTT9=
EXTT10=
EXTT11=
EXTT12=
EXTT13=
EXTT14=
EXTT15=
EXTT16=
EXTT17=
EXTT18=
EXTT19=
EXTT20=
EXTT21=
EXTT22=
EXTT23=
EXTT24=
PLAYORDER=
